<svg width="64" height="64" viewBox="0 0 64 64" fill="none" xmlns="http://www.w3.org/2000/svg">
<path d="M33.3824 14.4998C24.7987 14.4998 17.5462 21.4195 17.5462 30.1082C17.5462 38.3974 24.2867 45.3325 33.2467 45.3043C35.543 45.2966 37.3453 44.8947 39.0835 44.3034L38.3795 42.8595C36.7155 43.5149 35.0669 43.6838 33.2467 43.6838C25.4131 43.6838 19.2589 37.6243 19.2589 30.1082C19.2589 22.3181 25.5539 16.2022 33.2339 16.2022C39.447 16.2022 44.7155 20.1293 46.8813 25.7843L48.4582 25.2851C46.2157 18.9978 40.7475 14.4998 33.3824 14.4998Z" fill="#64B5E5"/>
<path d="M16.3098 23.6749C10.7802 24.1331 6.41281 28.841 6.41281 34.2886C6.41281 39.9206 10.8698 44.4442 16.937 44.4442C18.8467 44.4442 20.3162 44.073 21.6858 43.4458L20.4749 42.2477C19.3741 42.7187 18.3706 42.8723 17.001 42.8723C12.2394 42.8723 8.27905 39.1245 8.27905 34.2886C8.27905 29.7267 11.6813 25.9763 15.9539 25.5002L16.2867 25.4438L16.3789 25.047C16.5197 24.5632 16.5658 24.2739 16.6938 23.6749H16.3098Z" fill="#64B5E5"/>
<path d="M4.1088 34.1504C1.99936 35.927 0.852478 38.3693 0.852478 41.1853C0.852478 45.504 4.43136 49.3645 9.14176 49.4003H51.433C57.7562 49.3645 63.0579 44.1318 63.0579 38.3334C63.0579 32.2688 58.1248 27.3101 51.3152 27.3101C44.9536 27.3101 39.9744 32.6912 39.9744 38.3334C39.9744 42.1606 41.9226 45.591 45.2557 47.7773H9.13408C5.47328 47.7414 2.47808 44.7104 2.47808 41.1853C2.47808 39.0144 3.37408 37.3018 4.27008 36.1446C4.16768 35.5046 4.10112 34.8621 4.10112 34.1504H4.1088ZM51.3152 29.1021C56.7552 29.1021 61.2275 33.3696 61.2275 38.3334C61.2275 43.4125 56.9651 47.657 51.2 47.657C45.9187 47.657 41.7152 43.561 41.7152 38.3334C41.7152 33.3696 45.7242 29.1021 51.3152 29.1021Z" fill="#64B5E5"/>
</svg>
